<svg width="23" height="23" viewBox="0 0 23 23" fill="none" xmlns="http://www.w3.org/2000/svg">
<circle cx="11.5" cy="11.5" r="11.5" fill="#E8042F"/>
<path d="M5.27539 15.6484H4.18555V8.42383L2 9.22656V8.24219L5.10547 7.07617H5.27539V15.6484Z" fill="white"/>
<path d="M14.041 15.6484H8.45117V14.8691L11.4043 11.5879C11.8418 11.0918 12.1426 10.6895 12.3066 10.3809C12.4746 10.0684 12.5586 9.74609 12.5586 9.41406C12.5586 8.96875 12.4238 8.60352 12.1543 8.31836C11.8848 8.0332 11.5254 7.89062 11.0762 7.89062C10.5371 7.89062 10.1172 8.04492 9.81641 8.35352C9.51953 8.6582 9.37109 9.08398 9.37109 9.63086H8.28711C8.28711 8.8457 8.53906 8.21094 9.04297 7.72656C9.55078 7.24219 10.2285 7 11.0762 7C11.8691 7 12.4961 7.20898 12.957 7.62695C13.418 8.04102 13.6484 8.59375 13.6484 9.28516C13.6484 10.125 13.1133 11.125 12.043 12.2852L9.75781 14.7637H14.041V15.6484Z" fill="white"/>
<path d="M18.4062 11.0723H20.7852V12.0977H18.4062V14.793H17.3164V12.0977H14.9375V11.0723H17.3164V8.58203H18.4062V11.0723Z" fill="white"/>
</svg>
