<svg width="178" height="29" viewBox="0 0 178 29" fill="none" xmlns="http://www.w3.org/2000/svg">
<path d="M178 1.06201V28.0263H173.941V18.6153C172.562 19.4709 170.919 19.9577 169.153 19.9577C167.387 19.9577 165.745 19.4709 164.366 18.6153V28.0263H160.307V1.06201H164.366V11.535C164.366 14.0426 166.519 16.093 169.153 16.093C171.787 16.093 173.941 14.0426 173.941 11.535V1.06201H178Z" fill="white"/>
<path d="M135.859 1.07715V4.89758H128.329V28.0267H124.317V4.89758H116.787V1.07715H135.859Z" fill="white"/>
<path d="M110.078 20.5035H114.06C114.06 24.7665 110.419 28.2477 105.926 28.2477C101.82 28.2477 98.3497 25.327 97.854 21.4476C97.8075 21.1378 97.792 20.828 97.792 20.5035C97.792 20.238 97.792 9.07167 97.792 8.80616C97.792 8.49639 97.8075 8.17187 97.854 7.86211C98.3497 3.98266 101.82 1.06201 105.926 1.06201C110.403 1.06201 114.06 4.52844 114.06 8.80616H110.078C110.078 6.62305 108.219 4.85296 105.926 4.85296C103.865 4.85296 102.115 6.29853 101.82 8.23088V21.0935C102.115 23.0259 103.865 24.4715 105.926 24.4715C108.219 24.4567 110.078 22.6866 110.078 20.5035Z" fill="white"/>
<path d="M43.7683 1.16528C39.3218 1.16528 35.7119 4.60219 35.7119 8.83564H39.6317C39.6317 6.66729 41.4908 4.89721 43.7683 4.89721C46.0458 4.89721 47.905 6.66729 47.905 8.83564C47.905 11.004 46.0458 12.7741 43.7683 12.7741C39.3218 12.7741 35.7119 16.211 35.7119 20.4444C35.7119 24.6779 39.3218 28.1148 43.7683 28.1148C45.2866 28.1148 46.6965 27.7165 47.905 27.0232V28.0263H51.8247V8.83564C51.8247 4.60219 48.2148 1.16528 43.7683 1.16528ZM43.7683 24.3976C41.4908 24.3976 39.6317 22.6275 39.6317 20.4592C39.6317 18.2908 41.4908 16.5208 43.7683 16.5208C45.2866 16.5208 46.6965 16.1225 47.905 15.4292V20.4739C47.905 22.6275 46.0458 24.3976 43.7683 24.3976Z" fill="white"/>
<path d="M146.704 1.06201C142.227 1.06201 138.586 4.52844 138.586 8.7914H142.537C142.537 6.59354 144.411 4.8087 146.72 4.8087C149.028 4.8087 150.903 6.59354 150.903 8.7914C150.903 10.9893 149.028 12.7741 146.72 12.7741C142.242 12.7741 138.601 16.2405 138.601 20.5035C138.601 24.7665 142.242 28.2329 146.72 28.2329C148.254 28.2329 149.679 27.8346 150.903 27.1266V28.1444H154.854V8.7914C154.823 4.52844 151.182 1.06201 146.704 1.06201ZM146.704 24.4862C144.396 24.4862 142.521 22.7014 142.521 20.5035C142.521 18.3056 144.396 16.5208 146.704 16.5208C148.238 16.5208 149.663 16.1225 150.887 15.4145V20.4887C150.872 22.7014 148.997 24.4862 146.704 24.4862Z" fill="white"/>
<path d="M21.7058 0H0V29H21.7058C26.5087 29 30.4129 25.2828 30.4129 20.7101V8.28993C30.4129 3.71719 26.5087 0 21.7058 0ZM4.35355 24.855V4.14496H21.7213C24.1227 4.14496 26.0749 6.00356 26.0749 8.28993V20.7248C26.0749 23.0112 24.1227 24.8698 21.7213 24.8698H4.35355V24.855Z" fill="white"/>
<path d="M18.7937 19.8546C17.2909 18.4238 16.4697 16.5209 16.4697 14.4999C16.4697 12.479 17.2909 10.5761 18.7937 9.14526L20.8078 11.0629C19.8472 11.9775 19.305 13.2018 19.305 14.4999C19.305 15.798 19.8317 17.0224 20.8078 17.937L18.7937 19.8546Z" fill="#AF0707"/>
<path d="M18.7935 19.8546C16.7948 17.9517 13.5568 17.9517 11.5737 19.8546L9.55957 17.937C12.6582 14.9868 17.7089 14.9868 20.8076 17.937L18.7935 19.8546Z" fill="#FC0505"/>
<path d="M11.5737 19.8546L9.55957 17.937C11.5582 16.0341 11.5582 12.9511 9.55957 11.0629L11.5737 9.14526C14.6723 12.0955 14.6723 16.9044 11.5737 19.8546Z" fill="#AF0707"/>
<path d="M15.1836 13.2755C13.061 13.2755 11.0624 12.4937 9.55957 11.0629L11.5737 9.14526C12.5342 10.0746 13.8202 10.5761 15.1836 10.5761C16.547 10.5761 17.8329 10.0746 18.7935 9.14526L20.8076 11.0629C19.3047 12.4937 17.3061 13.2755 15.1836 13.2755Z" fill="#FC0505"/>
<path d="M61.291 28.0263H57.2783V1.06201H73.3292V4.88244H61.291V28.0263Z" fill="white"/>
<path d="M84.3598 24.5012C82.2527 24.5012 80.471 23.0261 80.1767 21.0642V19.8842C80.471 17.9223 82.2527 16.4472 84.3598 16.4472H84.3753C88.8683 16.4472 92.5246 12.9661 92.5246 8.67357C92.5246 4.38109 88.8683 0.899902 84.3753 0.899902C79.8823 0.899902 76.2259 4.39584 76.2259 8.67357C76.2259 8.67357 76.195 21.1085 76.2414 21.4183C76.7372 25.3125 80.2231 28.2479 84.3443 28.2479C88.8528 28.2479 92.5091 24.7667 92.5091 20.4742H88.5739C88.5894 22.6868 86.6993 24.5012 84.3598 24.5012ZM80.1767 8.65882C80.1767 6.43145 82.0668 4.63185 84.3908 4.63185C86.7147 4.63185 88.6049 6.4462 88.6049 8.65882C88.6049 10.8862 86.7147 12.6858 84.3908 12.6858H84.3753C82.857 12.6858 81.4161 13.0841 80.1922 13.7921V8.65882H80.1767Z" fill="white"/>
</svg>
