<svg width="164" height="28" viewBox="0 0 164 28" fill="none" xmlns="http://www.w3.org/2000/svg">
<path d="M163.886 1.02542V27.06H160.149V17.9735C158.879 18.7996 157.367 19.2696 155.741 19.2696C154.115 19.2696 152.603 18.7996 151.333 17.9735V27.06H147.596V1.02542H151.333V11.1373C151.333 13.5585 153.316 15.5381 155.741 15.5381C158.166 15.5381 160.149 13.5585 160.149 11.1373V1.02542H163.886Z" fill="#343434"/>
<path d="M125.086 1.0397V4.72841H118.154V27.06H114.459V4.72841H107.527V1.0397H125.086Z" fill="#343434"/>
<path d="M101.35 19.7965H105.016C105.016 23.9125 101.664 27.2736 97.5271 27.2736C93.747 27.2736 90.5517 24.4537 90.0952 20.708C90.0524 20.4089 90.0382 20.1099 90.0382 19.7965C90.0382 19.5402 90.0382 8.75889 90.0382 8.50253C90.0382 8.20345 90.0524 7.89012 90.0952 7.59104C90.5517 3.84536 93.747 1.02542 97.5271 1.02542C101.65 1.02542 105.016 4.37232 105.016 8.50253H101.35C101.35 6.3947 99.6383 4.68564 97.5271 4.68564C95.6299 4.68564 94.018 6.08137 93.747 7.94709V20.3662C94.018 22.2319 95.6299 23.6277 97.5271 23.6277C99.6383 23.6134 101.35 21.9044 101.35 19.7965Z" fill="#343434"/>
<path d="M40.2975 1.12512C36.2036 1.12512 32.8799 4.44353 32.8799 8.53102H36.4889C36.4889 6.43743 38.2006 4.72838 40.2975 4.72838C42.3944 4.72838 44.1062 6.43743 44.1062 8.53102C44.1062 10.6246 42.3944 12.3337 40.2975 12.3337C36.2036 12.3337 32.8799 15.6521 32.8799 19.7396C32.8799 23.8271 36.2036 27.1455 40.2975 27.1455C41.6954 27.1455 42.9935 26.7609 44.1062 26.0915V27.06H47.7151V8.53102C47.7151 4.44353 44.3915 1.12512 40.2975 1.12512ZM40.2975 23.5565C38.2006 23.5565 36.4889 21.8474 36.4889 19.7538C36.4889 17.6602 38.2006 15.9512 40.2975 15.9512C41.6954 15.9512 42.9935 15.5666 44.1062 14.8972V19.7681C44.1062 21.8474 42.3944 23.5565 40.2975 23.5565Z" fill="#343434"/>
<path d="M135.072 1.02542C130.949 1.02542 127.597 4.37232 127.597 8.48829H131.234C131.234 6.36621 132.96 4.64292 135.086 4.64292C137.211 4.64292 138.937 6.36621 138.937 8.48829C138.937 10.6104 137.211 12.3337 135.086 12.3337C130.963 12.3337 127.611 15.6806 127.611 19.7965C127.611 23.9125 130.963 27.2594 135.086 27.2594C136.498 27.2594 137.81 26.8749 138.937 26.1912V27.1739H142.575V8.48829C142.546 4.37232 139.194 1.02542 135.072 1.02542ZM135.072 23.6419C132.946 23.6419 131.22 21.9186 131.22 19.7965C131.22 17.6745 132.946 15.9512 135.072 15.9512C136.484 15.9512 137.796 15.5666 138.923 14.883V19.7823C138.909 21.9186 137.183 23.6419 135.072 23.6419Z" fill="#343434"/>
<path d="M19.9847 0H0V28H19.9847C24.4067 28 28.0014 24.411 28.0014 19.9959V8.00407C28.0014 3.58901 24.4067 0 19.9847 0ZM4.00835 23.998V4.00203H19.999C22.21 4.00203 24.0073 5.79654 24.0073 8.00407V20.0102C24.0073 22.2177 22.21 24.0122 19.999 24.0122H4.00835V23.998Z" fill="#343434"/>
<path d="M17.303 19.1699C15.9193 17.7884 15.1633 15.9511 15.1633 14C15.1633 12.0488 15.9193 10.2116 17.303 8.83008L19.1574 10.6816C18.273 11.5646 17.7737 12.7467 17.7737 14C17.7737 15.2533 18.2587 16.4354 19.1574 17.3184L17.303 19.1699Z" fill="#FF0000"/>
<path d="M17.303 19.1699C15.4628 17.3326 12.4815 17.3326 10.6557 19.1699L8.80127 17.3184C11.6542 14.47 16.3045 14.47 19.1574 17.3184L17.303 19.1699Z" fill="#D20000"/>
<path d="M10.6557 19.1699L8.80127 17.3184C10.6414 15.4811 10.6414 12.5045 8.80127 10.6816L10.6557 8.83008C13.5086 11.6785 13.5086 16.3214 10.6557 19.1699Z" fill="#FF0000"/>
<path d="M13.9793 12.8179C12.0251 12.8179 10.1849 12.063 8.80127 10.6816L10.6557 8.83008C11.5401 9.72733 12.724 10.2116 13.9793 10.2116C15.2346 10.2116 16.4186 9.72733 17.303 8.83008L19.1574 10.6816C17.7737 12.063 15.9336 12.8179 13.9793 12.8179Z" fill="#D20000"/>
<path d="M56.4307 27.06H52.7362V1.02542H67.5143V4.71413H56.4307V27.06Z" fill="#343434"/>
<path d="M77.6707 23.6562C75.7308 23.6562 74.0903 22.2319 73.8193 20.3377V19.1984C74.0903 17.3042 75.7308 15.88 77.6707 15.88H77.685C81.8217 15.88 85.1882 12.5188 85.1882 8.37437C85.1882 4.22991 81.8217 0.868774 77.685 0.868774C73.5483 0.868774 70.1818 4.24416 70.1818 8.37437C70.1818 8.37437 70.1533 20.3805 70.1961 20.6796C70.6526 24.4395 73.8621 27.2737 77.6565 27.2737C81.8075 27.2737 85.1739 23.9125 85.1739 19.7681H81.5507C81.565 21.9044 79.8247 23.6562 77.6707 23.6562ZM73.8193 8.36013C73.8193 6.20957 75.5596 4.47203 77.6993 4.47203C79.839 4.47203 81.5792 6.22381 81.5792 8.36013C81.5792 10.5107 79.839 12.2482 77.6993 12.2482H77.685C76.2871 12.2482 74.9605 12.6328 73.8336 13.3164V8.36013H73.8193Z" fill="#343434"/>
</svg>
