<svg width="27" height="27" viewBox="0 0 27 27" fill="none" xmlns="http://www.w3.org/2000/svg">
<path d="M19.1974 10.8285C19.1962 12.4801 18.7046 14.0942 17.7849 15.4668C16.8652 16.8395 15.5586 17.909 14.0303 18.5401C12.502 19.1713 10.8206 19.3359 9.19867 19.0129C7.57675 18.69 6.08711 17.8941 4.91809 16.7258C3.74907 15.5576 2.95316 14.0694 2.63096 12.4494C2.30875 10.8295 2.47473 9.1506 3.10792 7.62487C3.7411 6.09914 4.81304 4.79512 6.18825 3.87769C7.56346 2.96026 9.18018 2.47058 10.834 2.47058C13.0527 2.47221 15.1799 3.35348 16.7482 4.92072C18.3164 6.48795 19.1974 8.6129 19.1974 10.8285Z" stroke="#E42012" stroke-width="3" stroke-linecap="round" stroke-linejoin="round"/>
<path d="M24.5296 24.5295L18.4673 18.4694" stroke="#343434" stroke-width="3" stroke-linecap="round" stroke-linejoin="round"/>
</svg>
