<svg width="17" height="17" viewBox="0 0 17 17" fill="none" xmlns="http://www.w3.org/2000/svg">
<path d="M16.219 15.3794L11.735 10.8954C12.8125 9.60183 13.3498 7.94261 13.2352 6.26293C13.1205 4.58325 12.3627 3.01244 11.1194 1.87726C9.87609 0.742086 8.24299 0.129949 6.55984 0.168194C4.87668 0.206438 3.27307 0.892119 2.0826 2.08259C0.892119 3.27307 0.206438 4.87668 0.168194 6.55984C0.129949 8.24299 0.742086 9.87609 1.87726 11.1194C3.01244 12.3627 4.58325 13.1205 6.26293 13.2352C7.94261 13.3498 9.60183 12.8125 10.8954 11.735L15.3794 16.219L16.219 15.3794ZM1.37524 6.71899C1.37524 5.66209 1.68864 4.62893 2.27582 3.75016C2.863 2.87138 3.69758 2.18646 4.67402 1.78201C5.65047 1.37755 6.72492 1.27173 7.7615 1.47792C8.79809 1.68411 9.75025 2.19305 10.4976 2.94038C11.2449 3.68772 11.7539 4.63989 11.9601 5.67647C12.1662 6.71306 12.0604 7.78751 11.656 8.76395C11.2515 9.74039 10.5666 10.575 9.68782 11.1622C8.80904 11.7493 7.77588 12.0627 6.71899 12.0627C5.30222 12.0612 3.94393 11.4977 2.94212 10.4959C1.94031 9.49405 1.37681 8.13575 1.37524 6.71899Z" fill="#CFAE52"/>
</svg>
