<svg width="21" height="14" viewBox="0 0 21 14" fill="none" xmlns="http://www.w3.org/2000/svg">
<path fill-rule="evenodd" clip-rule="evenodd" d="M20.5183 0.948C20.6636 0.402 20.5183 0 19.8227 0H17.5259C16.9414 0 16.6719 0.347 16.5258 0.73C16.5258 0.73 15.3577 3.926 13.7031 6.002C13.1676 6.604 12.9244 6.795 12.6321 6.795C12.486 6.795 12.2664 6.604 12.2664 6.057V0.948C12.2664 0.292 12.1054 0 11.6189 0H8.00696C7.64209 0 7.42247 0.304 7.42247 0.593C7.42247 1.214 8.2502 1.358 8.33508 3.106V6.904C8.33508 7.737 8.2012 7.888 7.90896 7.888C7.13023 7.888 5.23589 4.677 4.11154 1.003C3.89367 0.288 3.67317 0 3.08606 0H0.787483C0.131247 0 0 0.347 0 0.73C0 1.412 0.778734 4.8 3.6268 9.281C5.52551 12.341 8.19858 14 10.6337 14C12.094 14 12.2742 13.632 12.2742 12.997V10.684C12.2742 9.947 12.4125 9.8 12.8754 9.8C13.2166 9.8 13.8002 9.992 15.1634 11.467C16.7209 13.216 16.9773 14 17.854 14H20.1508C20.8071 14 21.1361 13.632 20.9471 12.904C20.7388 12.18 19.9951 11.129 19.009 9.882C18.4735 9.172 17.6703 8.407 17.4261 8.024C17.0858 7.533 17.1829 7.314 17.4261 6.877C17.4261 6.877 20.2261 2.451 20.5174 0.948H20.5183Z" fill="#343434"/>
</svg>
