<svg width="18" height="13" viewBox="0 0 18 13" fill="none" xmlns="http://www.w3.org/2000/svg">
<path d="M17.6243 2.03073C17.5219 1.6375 17.321 1.27889 17.0417 0.990807C16.7625 0.702719 16.4147 0.495253 16.0333 0.389172C14.629 7.89667e-08 9 0 9 0C9 0 3.37098 -7.89667e-08 1.96674 0.387102C1.58509 0.492839 1.23715 0.70019 0.957869 0.988331C0.67859 1.27647 0.477802 1.63526 0.37567 2.02866C-7.66345e-08 3.47771 0 6.5 0 6.5C0 6.5 -7.66345e-08 9.52229 0.37567 10.9693C0.582589 11.7683 1.1933 12.3976 1.96674 12.6108C3.37098 13 9 13 9 13C9 13 14.629 13 16.0333 12.6108C16.8087 12.3976 17.4174 11.7683 17.6243 10.9693C18 9.52229 18 6.5 18 6.5C18 6.5 18 3.47771 17.6243 2.03073ZM7.21205 9.27389V3.72611L11.8728 6.4793L7.21205 9.27389Z" fill="#343434"/>
</svg>
